<?xml version="1.0" encoding="UTF-8" standalone="no"?>
<!DOCTYPE svg PUBLIC "-//W3C//DTD SVG 1.1//EN"
 "http://www.w3.org/Graphics/SVG/1.1/DTD/svg11.dtd">
<!-- Generated by graphviz version 2.40.1 (20161225.0304)
 -->
<!-- Title: ILP Pages: 1 -->
<svg width="1170pt" height="136pt"
 viewBox="0.00 0.00 1170.08 136.08" xmlns="http://www.w3.org/2000/svg" xmlns:xlink="http://www.w3.org/1999/xlink">
<g id="graph0" class="graph" transform="scale(1 1) rotate(0) translate(4 132.0798)">
<title>ILP</title>
<polygon fill="#ffffff" stroke="transparent" points="-4,4 -4,-132.0798 1166.0798,-132.0798 1166.0798,4 -4,4"/>
<!-- k0 -->
<g id="node1" class="node">
<title>k0</title>
<ellipse fill="none" stroke="#000000" cx="28.0399" cy="-100.0399" rx="28.0798" ry="28.0798"/>
<text text-anchor="middle" x="28.0399" y="-95.8399" font-family="Times,serif" font-size="14.00" fill="#000000">Kit 0</text>
</g>
<!-- v -->
<g id="node8" class="node">
<title>v</title>
<polygon fill="none" stroke="#000000" points="128.3615,-118.0399 73.7183,-118.0399 73.7183,-82.0399 128.3615,-82.0399 128.3615,-118.0399"/>
<text text-anchor="middle" x="101.0399" y="-95.8399" font-family="Times,serif" font-size="14.00" fill="#000000">Virtual</text>
</g>
<!-- k0&#45;&gt;v -->
<g id="edge1" class="edge">
<title>k0&#45;&gt;v</title>
<path fill="none" stroke="#000000" d="M56.2704,-100.0399C58.5912,-100.0399 60.912,-100.0399 63.2328,-100.0399"/>
<polygon fill="#000000" stroke="#000000" points="63.4087,-103.54 73.4087,-100.0399 63.4087,-96.54 63.4087,-103.54"/>
</g>
<!-- k1 -->
<g id="node2" class="node">
<title>k1</title>
<ellipse fill="none" stroke="#000000" cx="174.0399" cy="-100.0399" rx="28.0798" ry="28.0798"/>
<text text-anchor="middle" x="174.0399" y="-95.8399" font-family="Times,serif" font-size="14.00" fill="#000000">Kit 1</text>
</g>
<!-- et -->
<g id="node9" class="node">
<title>et</title>
<polygon fill="none" stroke="#000000" points="345.7715,-118.0399 220.3082,-118.0399 220.3082,-82.0399 345.7715,-82.0399 345.7715,-118.0399"/>
<text text-anchor="middle" x="283.0399" y="-95.8399" font-family="Times,serif" font-size="14.00" fill="#000000">Ethereum (Escrow)</text>
</g>
<!-- k1&#45;&gt;et -->
<g id="edge3" class="edge">
<title>k1&#45;&gt;et</title>
<path fill="none" stroke="#000000" d="M202.1414,-100.0399C204.7683,-100.0399 207.3951,-100.0399 210.0219,-100.0399"/>
<polygon fill="#000000" stroke="#000000" points="210.154,-103.54 220.154,-100.0399 210.154,-96.54 210.154,-103.54"/>
</g>
<!-- k2 -->
<g id="node3" class="node">
<title>k2</title>
<ellipse fill="none" stroke="#000000" cx="392.0399" cy="-100.0399" rx="28.0798" ry="28.0798"/>
<text text-anchor="middle" x="392.0399" y="-95.8399" font-family="Times,serif" font-size="14.00" fill="#000000">Kit 2</text>
</g>
<!-- xp -->
<g id="node10" class="node">
<title>xp</title>
<polygon fill="none" stroke="#000000" points="541.5135,-118.0399 438.5662,-118.0399 438.5662,-82.0399 541.5135,-82.0399 541.5135,-118.0399"/>
<text text-anchor="middle" x="490.0399" y="-95.8399" font-family="Times,serif" font-size="14.00" fill="#000000">XRP (Paychan)</text>
</g>
<!-- k2&#45;&gt;xp -->
<g id="edge5" class="edge">
<title>k2&#45;&gt;xp</title>
<path fill="none" stroke="#000000" d="M420.368,-100.0399C422.9875,-100.0399 425.607,-100.0399 428.2265,-100.0399"/>
<polygon fill="#000000" stroke="#000000" points="428.3303,-103.54 438.3303,-100.0399 428.3303,-96.54 428.3303,-103.54"/>
</g>
<!-- k3 -->
<g id="node4" class="node">
<title>k3</title>
<ellipse fill="none" stroke="#000000" cx="588.0399" cy="-100.0399" rx="28.0798" ry="28.0798"/>
<text text-anchor="middle" x="588.0399" y="-95.8399" font-family="Times,serif" font-size="14.00" fill="#000000">Kit 3</text>
</g>
<!-- ch -->
<g id="node11" class="node">
<title>ch</title>
<polygon fill="none" stroke="#000000" points="688.0399,-118.0399 634.0399,-118.0399 634.0399,-82.0399 688.0399,-82.0399 688.0399,-118.0399"/>
<text text-anchor="middle" x="661.0399" y="-95.8399" font-family="Times,serif" font-size="14.00" fill="#000000">Chain</text>
</g>
<!-- k3&#45;&gt;ch -->
<g id="edge7" class="edge">
<title>k3&#45;&gt;ch</title>
<path fill="none" stroke="#000000" d="M616.2704,-100.0399C618.7296,-100.0399 621.1889,-100.0399 623.6481,-100.0399"/>
<polygon fill="#000000" stroke="#000000" points="623.7585,-103.54 633.7584,-100.0399 623.7584,-96.54 623.7585,-103.54"/>
</g>
<!-- k4 -->
<g id="node5" class="node">
<title>k4</title>
<ellipse fill="none" stroke="#000000" cx="734.0399" cy="-100.0399" rx="28.0798" ry="28.0798"/>
<text text-anchor="middle" x="734.0399" y="-95.8399" font-family="Times,serif" font-size="14.00" fill="#000000">Kit 3</text>
</g>
<!-- bp -->
<g id="node12" class="node">
<title>bp</title>
<polygon fill="none" stroke="#000000" points="898.0135,-118.0399 780.0663,-118.0399 780.0663,-82.0399 898.0135,-82.0399 898.0135,-118.0399"/>
<text text-anchor="middle" x="839.0399" y="-95.8399" font-family="Times,serif" font-size="14.00" fill="#000000">Bitcoin (Paychan)</text>
</g>
<!-- k4&#45;&gt;bp -->
<g id="edge9" class="edge">
<title>k4&#45;&gt;bp</title>
<path fill="none" stroke="#000000" d="M762.3407,-100.0399C764.8265,-100.0399 767.3123,-100.0399 769.7981,-100.0399"/>
<polygon fill="#000000" stroke="#000000" points="770.0175,-103.54 780.0174,-100.0399 770.0174,-96.54 770.0175,-103.54"/>
</g>
<!-- k5 -->
<g id="node6" class="node">
<title>k5</title>
<ellipse fill="none" stroke="#000000" cx="944.0399" cy="-100.0399" rx="28.0798" ry="28.0798"/>
<text text-anchor="middle" x="944.0399" y="-95.8399" font-family="Times,serif" font-size="14.00" fill="#000000">Kit 3</text>
</g>
<!-- xe -->
<g id="node13" class="node">
<title>xe</title>
<polygon fill="none" stroke="#000000" points="1087.5732,-118.0399 990.5065,-118.0399 990.5065,-82.0399 1087.5732,-82.0399 1087.5732,-118.0399"/>
<text text-anchor="middle" x="1039.0399" y="-95.8399" font-family="Times,serif" font-size="14.00" fill="#000000">XRP (Escrow)</text>
</g>
<!-- k5&#45;&gt;xe -->
<g id="edge11" class="edge">
<title>k5&#45;&gt;xe</title>
<path fill="none" stroke="#000000" d="M972.243,-100.0399C974.8686,-100.0399 977.4941,-100.0399 980.1197,-100.0399"/>
<polygon fill="#000000" stroke="#000000" points="980.2469,-103.54 990.2469,-100.0399 980.2468,-96.54 980.2469,-103.54"/>
</g>
<!-- k6 -->
<g id="node7" class="node">
<title>k6</title>
<ellipse fill="none" stroke="#000000" cx="1134.0399" cy="-100.0399" rx="28.0798" ry="28.0798"/>
<text text-anchor="middle" x="1134.0399" y="-95.8399" font-family="Times,serif" font-size="14.00" fill="#000000">Kit 3</text>
</g>
<!-- v2 -->
<g id="node14" class="node">
<title>v2</title>
<polygon fill="none" stroke="#000000" points="608.3615,-36 553.7183,-36 553.7183,0 608.3615,0 608.3615,-36"/>
<text text-anchor="middle" x="581.0399" y="-13.8" font-family="Times,serif" font-size="14.00" fill="#000000">Virtual</text>
</g>
<!-- k6&#45;&gt;v2 -->
<g id="edge13" class="edge">
<title>k6&#45;&gt;v2</title>
<path fill="none" stroke="#000000" d="M1112.9379,-80.9983C1108.0183,-77.46 1102.5866,-74.1922 1097.0399,-72 1009.6761,-37.4716 722.1146,-23.3603 618.5933,-19.3176"/>
<polygon fill="#000000" stroke="#000000" points="618.7204,-15.82 608.5942,-18.9363 618.4536,-22.8149 618.7204,-15.82"/>
</g>
<!-- v&#45;&gt;k1 -->
<g id="edge2" class="edge">
<title>v&#45;&gt;k1</title>
<path fill="none" stroke="#000000" d="M128.4149,-100.0399C130.871,-100.0399 133.3271,-100.0399 135.7833,-100.0399"/>
<polygon fill="#000000" stroke="#000000" points="135.8807,-103.54 145.8807,-100.0399 135.8807,-96.54 135.8807,-103.54"/>
</g>
<!-- et&#45;&gt;k2 -->
<g id="edge4" class="edge">
<title>et&#45;&gt;k2</title>
<path fill="none" stroke="#000000" d="M346.0555,-100.0399C348.531,-100.0399 351.0065,-100.0399 353.4819,-100.0399"/>
<polygon fill="#000000" stroke="#000000" points="353.6589,-103.54 363.6589,-100.0399 353.6589,-96.54 353.6589,-103.54"/>
</g>
<!-- xp&#45;&gt;k3 -->
<g id="edge6" class="edge">
<title>xp&#45;&gt;k3</title>
<path fill="none" stroke="#000000" d="M541.7196,-100.0399C544.3583,-100.0399 546.9969,-100.0399 549.6356,-100.0399"/>
<polygon fill="#000000" stroke="#000000" points="549.8135,-103.54 559.8134,-100.0399 549.8134,-96.54 549.8135,-103.54"/>
</g>
<!-- ch&#45;&gt;k4 -->
<g id="edge8" class="edge">
<title>ch&#45;&gt;k4</title>
<path fill="none" stroke="#000000" d="M688.1297,-100.0399C690.6012,-100.0399 693.0727,-100.0399 695.5442,-100.0399"/>
<polygon fill="#000000" stroke="#000000" points="695.7047,-103.54 705.7047,-100.0399 695.7047,-96.54 695.7047,-103.54"/>
</g>
<!-- bp&#45;&gt;k5 -->
<g id="edge10" class="edge">
<title>bp&#45;&gt;k5</title>
<path fill="none" stroke="#000000" d="M898.1024,-100.0399C900.5753,-100.0399 903.0483,-100.0399 905.5212,-100.0399"/>
<polygon fill="#000000" stroke="#000000" points="905.6879,-103.54 915.6878,-100.0399 905.6878,-96.54 905.6879,-103.54"/>
</g>
<!-- xe&#45;&gt;k6 -->
<g id="edge12" class="edge">
<title>xe&#45;&gt;k6</title>
<path fill="none" stroke="#000000" d="M1087.6532,-100.0399C1090.2956,-100.0399 1092.9381,-100.0399 1095.5806,-100.0399"/>
<polygon fill="#000000" stroke="#000000" points="1095.773,-103.54 1105.773,-100.0399 1095.7729,-96.54 1095.773,-103.54"/>
</g>
<!-- v2&#45;&gt;k0 -->
<g id="edge14" class="edge">
<title>v2&#45;&gt;k0</title>
<path fill="none" stroke="#000000" d="M553.4855,-18.9363C459.953,-22.4151 155.404,-36.2857 65.0399,-72 62.5265,-72.9934 60.0368,-74.2075 57.6076,-75.5677"/>
<polygon fill="#000000" stroke="#000000" points="55.6691,-72.6529 49.1418,-80.9983 59.4487,-78.5448 55.6691,-72.6529"/>
</g>
</g>
</svg>
