<?xml version="1.0" encoding="UTF-8" standalone="no"?>
<!DOCTYPE svg PUBLIC "-//W3C//DTD SVG 1.1//EN"
 "http://www.w3.org/Graphics/SVG/1.1/DTD/svg11.dtd">
<!-- Generated by graphviz version 2.40.1 (20161225.0304)
 -->
<!-- Title: ILP Pages: 1 -->
<svg width="192pt" height="150pt"
 viewBox="0.00 0.00 192.08 150.08" xmlns="http://www.w3.org/2000/svg" xmlns:xlink="http://www.w3.org/1999/xlink">
<g id="graph0" class="graph" transform="scale(1 1) rotate(0) translate(4 146.0798)">
<title>ILP</title>
<polygon fill="#ffffff" stroke="transparent" points="-4,4 -4,-146.0798 188.0798,-146.0798 188.0798,4 -4,4"/>
<!-- k0 -->
<g id="node1" class="node">
<title>k0</title>
<ellipse fill="none" stroke="#000000" cx="28.0399" cy="-114.0399" rx="28.0798" ry="28.0798"/>
<text text-anchor="middle" x="28.0399" y="-109.8399" font-family="Times,serif" font-size="14.00" fill="#000000">Kit 0</text>
</g>
<!-- la -->
<g id="node3" class="node">
<title>la</title>
<polygon fill="none" stroke="#000000" points="126.528,-36 57.5518,-36 57.5518,0 126.528,0 126.528,-36"/>
<text text-anchor="middle" x="92.0399" y="-13.8" font-family="Times,serif" font-size="14.00" fill="#000000">Ledger A</text>
</g>
<!-- k0&#45;&gt;la -->
<g id="edge1" class="edge">
<title>k0&#45;&gt;la</title>
<path fill="none" stroke="#000000" d="M43.8601,-90.2997C53.1176,-76.4077 64.8268,-58.8367 74.3837,-44.4953"/>
<polygon fill="#000000" stroke="#000000" points="77.382,-46.3075 80.0149,-36.045 71.5569,-42.4257 77.382,-46.3075"/>
<text text-anchor="middle" x="54.6986" y="-56.8" font-family="Times,serif" font-size="14.00" fill="#000000">Left</text>
</g>
<!-- k1 -->
<g id="node2" class="node">
<title>k1</title>
<ellipse fill="none" stroke="#000000" cx="156.0399" cy="-114.0399" rx="28.0798" ry="28.0798"/>
<text text-anchor="middle" x="156.0399" y="-109.8399" font-family="Times,serif" font-size="14.00" fill="#000000">Kit 1</text>
</g>
<!-- la&#45;&gt;k1 -->
<g id="edge2" class="edge">
<title>la&#45;&gt;k1</title>
<path fill="none" stroke="#000000" d="M104.0649,-36.045C112.6099,-48.8679 124.3217,-66.4428 134.4647,-81.6636"/>
<polygon fill="#000000" stroke="#000000" points="131.7617,-83.919 140.2197,-90.2997 137.5868,-80.0372 131.7617,-83.919"/>
<text text-anchor="middle" x="139.5985" y="-56.8" font-family="Times,serif" font-size="14.00" fill="#000000">Right</text>
</g>
</g>
</svg>
