<?xml version="1.0" encoding="UTF-8" standalone="no"?>
<!DOCTYPE svg PUBLIC "-//W3C//DTD SVG 1.1//EN"
 "http://www.w3.org/Graphics/SVG/1.1/DTD/svg11.dtd">
<!-- Generated by graphviz version 2.40.1 (20161225.0304)
 -->
<!-- Title: ILP Pages: 1 -->
<svg width="544pt" height="136pt"
 viewBox="0.00 0.00 544.08 136.08" xmlns="http://www.w3.org/2000/svg" xmlns:xlink="http://www.w3.org/1999/xlink">
<g id="graph0" class="graph" transform="scale(1 1) rotate(0) translate(4 132.0798)">
<title>ILP</title>
<polygon fill="#ffffff" stroke="transparent" points="-4,4 -4,-132.0798 540.0798,-132.0798 540.0798,4 -4,4"/>
<!-- k0 -->
<g id="node1" class="node">
<title>k0</title>
<ellipse fill="none" stroke="#000000" cx="28.0399" cy="-100.0399" rx="28.0798" ry="28.0798"/>
<text text-anchor="middle" x="28.0399" y="-95.8399" font-family="Times,serif" font-size="14.00" fill="#000000">Kit 0</text>
</g>
<!-- la -->
<g id="node5" class="node">
<title>la</title>
<polygon fill="none" stroke="#000000" points="142.528,-118.0399 73.5518,-118.0399 73.5518,-82.0399 142.528,-82.0399 142.528,-118.0399"/>
<text text-anchor="middle" x="108.0399" y="-95.8399" font-family="Times,serif" font-size="14.00" fill="#000000">Ledger A</text>
</g>
<!-- k0&#45;&gt;la -->
<g id="edge1" class="edge">
<title>k0&#45;&gt;la</title>
<path fill="none" stroke="#000000" d="M56.1649,-100.0399C58.6155,-100.0399 61.0662,-100.0399 63.5168,-100.0399"/>
<polygon fill="#000000" stroke="#000000" points="63.5917,-103.54 73.5916,-100.0399 63.5916,-96.54 63.5917,-103.54"/>
</g>
<!-- k1 -->
<g id="node2" class="node">
<title>k1</title>
<ellipse fill="none" stroke="#000000" cx="188.0399" cy="-100.0399" rx="28.0798" ry="28.0798"/>
<text text-anchor="middle" x="188.0399" y="-95.8399" font-family="Times,serif" font-size="14.00" fill="#000000">Kit 1</text>
</g>
<!-- lb -->
<g id="node6" class="node">
<title>lb</title>
<polygon fill="none" stroke="#000000" points="302.5211,-118.0399 233.5587,-118.0399 233.5587,-82.0399 302.5211,-82.0399 302.5211,-118.0399"/>
<text text-anchor="middle" x="268.0399" y="-95.8399" font-family="Times,serif" font-size="14.00" fill="#000000">Ledger B</text>
</g>
<!-- k1&#45;&gt;lb -->
<g id="edge3" class="edge">
<title>k1&#45;&gt;lb</title>
<path fill="none" stroke="#000000" d="M216.1649,-100.0399C218.6155,-100.0399 221.0662,-100.0399 223.5168,-100.0399"/>
<polygon fill="#000000" stroke="#000000" points="223.5917,-103.54 233.5916,-100.0399 223.5916,-96.54 223.5917,-103.54"/>
</g>
<!-- k2 -->
<g id="node3" class="node">
<title>k2</title>
<ellipse fill="none" stroke="#000000" cx="348.0399" cy="-100.0399" rx="28.0798" ry="28.0798"/>
<text text-anchor="middle" x="348.0399" y="-95.8399" font-family="Times,serif" font-size="14.00" fill="#000000">Kit 2</text>
</g>
<!-- lc -->
<g id="node7" class="node">
<title>lc</title>
<polygon fill="none" stroke="#000000" points="462.5211,-118.0399 393.5587,-118.0399 393.5587,-82.0399 462.5211,-82.0399 462.5211,-118.0399"/>
<text text-anchor="middle" x="428.0399" y="-95.8399" font-family="Times,serif" font-size="14.00" fill="#000000">Ledger C</text>
</g>
<!-- k2&#45;&gt;lc -->
<g id="edge5" class="edge">
<title>k2&#45;&gt;lc</title>
<path fill="none" stroke="#000000" d="M376.1649,-100.0399C378.6155,-100.0399 381.0662,-100.0399 383.5168,-100.0399"/>
<polygon fill="#000000" stroke="#000000" points="383.5917,-103.54 393.5916,-100.0399 383.5916,-96.54 383.5917,-103.54"/>
</g>
<!-- k3 -->
<g id="node4" class="node">
<title>k3</title>
<ellipse fill="none" stroke="#000000" cx="508.0399" cy="-100.0399" rx="28.0798" ry="28.0798"/>
<text text-anchor="middle" x="508.0399" y="-95.8399" font-family="Times,serif" font-size="14.00" fill="#000000">Kit 3</text>
</g>
<!-- ld -->
<g id="node8" class="node">
<title>ld</title>
<polygon fill="none" stroke="#000000" points="302.7923,-36 233.2875,-36 233.2875,0 302.7923,0 302.7923,-36"/>
<text text-anchor="middle" x="268.0399" y="-13.8" font-family="Times,serif" font-size="14.00" fill="#000000">Ledger D</text>
</g>
<!-- k3&#45;&gt;ld -->
<g id="edge7" class="edge">
<title>k3&#45;&gt;ld</title>
<path fill="none" stroke="#000000" d="M486.6539,-81.6425C481.752,-78.064 476.3993,-74.617 471.0399,-72 419.7249,-46.943 355.2344,-32.3356 312.8859,-24.7692"/>
<polygon fill="#000000" stroke="#000000" points="313.3323,-21.2945 302.8821,-23.0393 312.1395,-28.1922 313.3323,-21.2945"/>
</g>
<!-- la&#45;&gt;k1 -->
<g id="edge2" class="edge">
<title>la&#45;&gt;k1</title>
<path fill="none" stroke="#000000" d="M142.4149,-100.0399C144.871,-100.0399 147.3271,-100.0399 149.7833,-100.0399"/>
<polygon fill="#000000" stroke="#000000" points="149.8807,-103.54 159.8807,-100.0399 149.8807,-96.54 149.8807,-103.54"/>
</g>
<!-- lb&#45;&gt;k2 -->
<g id="edge4" class="edge">
<title>lb&#45;&gt;k2</title>
<path fill="none" stroke="#000000" d="M302.4149,-100.0399C304.871,-100.0399 307.3271,-100.0399 309.7833,-100.0399"/>
<polygon fill="#000000" stroke="#000000" points="309.8807,-103.54 319.8807,-100.0399 309.8807,-96.54 309.8807,-103.54"/>
</g>
<!-- lc&#45;&gt;k3 -->
<g id="edge6" class="edge">
<title>lc&#45;&gt;k3</title>
<path fill="none" stroke="#000000" d="M462.4149,-100.0399C464.871,-100.0399 467.3271,-100.0399 469.7833,-100.0399"/>
<polygon fill="#000000" stroke="#000000" points="469.8807,-103.54 479.8807,-100.0399 469.8807,-96.54 469.8807,-103.54"/>
</g>
<!-- ld&#45;&gt;k0 -->
<g id="edge8" class="edge">
<title>ld&#45;&gt;k0</title>
<path fill="none" stroke="#000000" d="M233.1976,-23.0393C191.5698,-29.9978 120.5859,-44.877 65.0399,-72 62.6951,-73.1449 60.3517,-74.4487 58.0467,-75.8529"/>
<polygon fill="#000000" stroke="#000000" points="55.7762,-73.1616 49.4259,-81.6425 59.6789,-78.9728 55.7762,-73.1616"/>
</g>
</g>
</svg>
